# xmcd
# 
# Track frame offsets:
#     225
#     22552
#     45447
#     68805
#     89502
#     112055
#     131590
#     152875
# 
# Disc length: 2380
# 
# Revision: 5
# Processed by: cddbd v1.5.2PL0 Copyright (c) Steve Scherf et al.
# Submitted via: fre:ac v1.0.27
# 
DISCID=60094908
DTITLE=Rush - Grace Under Pressure
DYEAR=1984
DGENRE=Rock
TTITLE0=Distant Early Warning
TTITLE1=Afterimage
TTITLE2=Red Sector A
TTITLE3=The Enemy Within
TTITLE4=The Body Electric
TTITLE5=Kid Gloves
TTITLE6=Red Lenses
TTITLE7=Between the Wheels
EXTD=
EXTT0=
EXTT1=
EXTT2=
EXTT3=
EXTT4=
EXTT5=
EXTT6=
EXTT7=
PLAYORDER=
